<svg xmlns="http://www.w3.org/2000/svg" style="background-color: rgb(255, 255, 255);" width="658px" height="434px" version="1.1"><defs/><rect x="232" y="2" width="120" height="60" rx="9" ry="9" shape-rendering="crispEdges" fill="#ffffff" stroke="#000000"/><g text-anchor="middle" font-size="12px" font-family="Helvetica" fill="#000000"><text x="292" y="35">Initial</text></g><rect x="232" y="118" width="120" height="60" rx="9" ry="9" shape-rendering="crispEdges" fill="#ffffff" stroke="#000000"/><g text-anchor="middle" font-size="12px" font-family="Helvetica" fill="#000000"><text x="292" y="151">Connect_wait</text></g><rect x="22" y="92" width="120" height="60" rx="9" ry="9" shape-rendering="crispEdges" fill="#ffffff" stroke="#000000"/><g text-anchor="middle" font-size="12px" font-family="Helvetica" fill="#000000"><text x="82" y="125">Disconnect_wait</text></g><rect x="302" y="262" width="120" height="60" rx="9" ry="9" shape-rendering="crispEdges" fill="#ffffff" stroke="#000000"/><g text-anchor="middle" font-size="12px" font-family="Helvetica" fill="#000000"><text x="362" y="295">Closed</text></g><rect x="472" y="118" width="120" height="60" rx="9" ry="9" shape-rendering="crispEdges" fill="#ffffff" stroke="#000000"/><g text-anchor="middle" font-size="12px" font-family="Helvetica" fill="#000000"><text x="532" y="151">Reconnect_wait</text></g><rect x="52" y="262" width="120" height="60" rx="9" ry="9" shape-rendering="crispEdges" fill="#ffffff" stroke="#000000"/><g text-anchor="middle" font-size="12px" font-family="Helvetica" fill="#000000"><text x="112" y="295">Connected</text></g><rect x="302" y="372" width="120" height="60" rx="9" ry="9" shape-rendering="crispEdges" fill="#ffffff" stroke="#000000"/><g text-anchor="middle" font-size="12px" font-family="Helvetica" fill="#000000"><text x="362" y="396.5">Permanently</text><text x="362" y="412.1">disconnected</text></g><path d="M 292 116.88 L 288.5 109.88 L 292 111.63 L 295.5 109.88 Z" fill="#000000" stroke="#000000" stroke-miterlimit="10"/><path d="M 292 62 L 292 80 C 292 90 292 90 292 100 L 292 111.63" fill="none" stroke="#000000" stroke-miterlimit="10"/><path d="M 112 260.88 L 108.5 253.88 L 112 255.63 L 115.5 253.88 Z" fill="#000000" stroke="#000000" stroke-miterlimit="10"/><path d="M 262 178 L 262 210 C 262 220 262 220 252 220 L 122 220 C 112 220 112 220 112 230 L 112 255.63" fill="none" stroke="#000000" stroke-miterlimit="10"/><path d="M 362 260.88 L 358.5 253.88 L 362 255.63 L 365.5 253.88 Z" fill="#000000" stroke="#000000" stroke-miterlimit="10"/><path d="M 322 178 L 322 210 C 322 220 322 220 332 220 L 352 220 C 362 220 362 220 362 230 L 362 255.63" fill="none" stroke="#000000" stroke-miterlimit="10"/><path d="M 82 153.12 L 85.5 160.12 L 82 158.37 L 78.5 160.12 Z" fill="#000000" stroke="#000000" stroke-miterlimit="10"/><path d="M 82 262 L 82 158.37" shape-rendering="crispEdges" fill="none" stroke="#000000" stroke-miterlimit="10"/><path d="M 230.96 32.42 L 225.76 38.26 L 226.09 34.37 L 223.16 31.77 Z" fill="#000000" stroke="#000000" stroke-miterlimit="10"/><path d="M 82 92 L 226.09 34.37" fill="none" stroke="#000000" stroke-miterlimit="10"/><path d="M 362 370.88 L 358.5 363.88 L 362 365.63 L 365.5 363.88 Z" fill="#000000" stroke="#000000" stroke-miterlimit="10"/><path d="M 362 322 L 362 365.63" shape-rendering="crispEdges" fill="none" stroke="#000000" stroke-miterlimit="10"/><path d="M 531.22 178.8 L 528.88 186.27 L 527.58 182.58 L 523.84 181.41 Z" fill="#000000" stroke="#000000" stroke-miterlimit="10"/><path d="M 422 292 L 527.58 182.58" fill="none" stroke="#000000" stroke-miterlimit="10"/><path d="M 353.12 148 L 360.12 144.5 L 358.37 148 L 360.12 151.5 Z" fill="#000000" stroke="#000000" stroke-miterlimit="10"/><path d="M 472 148 L 358.37 148" shape-rendering="crispEdges" fill="none" stroke="#000000" stroke-miterlimit="10"/><g font-size="12px" font-family="Helvetica" fill="#000000"><text x="385" y="135">on(timeout)</text></g><g font-size="12px" font-family="Helvetica" fill="#000000"><text x="305" y="89">connect()</text></g><g font-size="12px" font-family="Helvetica" fill="#000000"><text x="165" y="196">on(connect)</text></g><g font-size="12px" font-family="Helvetica" fill="#000000"><text x="375" y="197.5">on(timeout)</text><text x="375" y="213.1">on(end)</text><text x="375" y="228.7">on(close)</text><text x="375" y="244.3">on(error)</text></g><path d="M 300.88 292 L 293.88 295.5 L 295.63 292 L 293.88 288.5 Z" fill="#000000" stroke="#000000" stroke-miterlimit="10"/><path d="M 172 292 L 295.63 292" shape-rendering="crispEdges" fill="none" stroke="#000000" stroke-miterlimit="10"/><g font-size="12px" font-family="Helvetica" fill="#000000"><text x="195" y="318">on(end)</text><text x="195" y="333.6">on(close)</text><text x="195" y="349.2">on(error)</text></g><g font-size="12px" font-family="Helvetica" fill="#000000"><text x="85" y="48.5">on(end)</text><text x="85" y="64.1">on(close)</text></g><g font-size="12px" font-family="Helvetica" fill="#000000"><text x="5" y="209">disconnect()</text></g><g font-size="12px" font-family="Helvetica" fill="#000000"><text x="485" y="266">reconnects &lt;= maxReconnects</text></g><g font-size="12px" font-family="Helvetica" fill="#000000"><text x="375" y="349">reconnects &gt; maxReconnects</text></g></svg>